<?xml version="1.0" encoding="UTF-8"?>
<svg width="20px" height="18px" viewBox="0 0 20 18" version="1.1" xmlns="http://www.w3.org/2000/svg" xmlns:xlink="http://www.w3.org/1999/xlink">
    <!-- Generator: Sketch 51.2 (57519) - http://www.bohemiancoding.com/sketch -->
    <title>Mask</title>
    <desc>Created with Sketch.</desc>
    <defs>
        <path d="M23.125,8.5 L18.75,8.5 L18.75,6.9375 C18.75,6.41972656 18.3302734,6 17.8125,6 L12.1875,6 C11.6697266,6 11.25,6.41972656 11.25,6.9375 L11.25,8.5 L6.875,8.5 C5.83945313,8.5 5,9.33945313 5,10.375 L5,21.625 C5,22.6605469 5.83945313,23.5 6.875,23.5 L23.125,23.5 C24.1605469,23.5 25,22.6605469 25,21.625 L25,10.375 C25,9.33945313 24.1605469,8.5 23.125,8.5 Z M12.5,7.25 L17.5,7.25 L17.5,8.5 L12.5,8.5 L12.5,7.25 Z M23.75,21.625 C23.75,21.9696094 23.4696094,22.25 23.125,22.25 L6.875,22.25 C6.53039062,22.25 6.25,21.9696094 6.25,21.625 L6.25,16 L12.5,16 L12.5,17.5625 C12.5,18.0802734 12.9197266,18.5 13.4375,18.5 L16.5625,18.5 C17.0802734,18.5 17.5,18.0802734 17.5,17.5625 L17.5,16 L23.75,16 L23.75,21.625 Z M13.75,16 L16.25,16 L16.25,17.25 L13.75,17.25 L13.75,16 Z M6.25,14.75 L6.25,10.375 C6.25,10.0303906 6.53039062,9.75 6.875,9.75 L23.125,9.75 C23.4696094,9.75 23.75,10.0303906 23.75,10.375 L23.75,14.75 L6.25,14.75 Z" id="path-1"></path>
    </defs>
    <g id="Symbols" stroke="none" stroke-width="1" fill="none" fill-rule="evenodd">
        <g id="Job-Icon" transform="translate(-5.000000, -6.000000)">
            <mask id="mask-2" fill="white">
                <use xlink:href="#path-1"></use>
            </mask>
            <use id="Mask" fill="#000000" fill-rule="nonzero" xlink:href="#path-1"></use>
        </g>
    </g>
</svg>
