

<svg width="26px" height="18px" viewBox="0 0 26 18" version="1.1" xmlns="http://www.w3.org/2000/svg" xmlns:xlink="http://www.w3.org/1999/xlink">
    <!-- Generator: Sketch 51.2 (57519) - http://www.bohemiancoding.com/sketch -->
    <desc>Created with Sketch.</desc>
    <defs>
        <path d="M1.93885287,3.84643392 L1.93885287,13.5094264 L8.24794264,8.68574813 L1.93885287,3.84643392 L1.93885287,3.84643392 Z M15.503005,9.66299252 L13.4703367,11.2265835 L11.5471197,11.2265835 L9.53790524,9.69426434 L1.93885287,15.4170075 L23.1333292,15.4170075 L15.503005,9.66299252 L15.503005,9.66299252 Z M1.93885287,1.93885287 L12.5243641,9.95225686 C15.8704489,7.38796758 19.4119825,4.72204489 23.1333292,1.93885287 L1.93885287,1.93885287 L1.93885287,1.93885287 Z M23.1333292,3.84643392 L16.8086035,8.68574813 L23.1333292,13.5094264 L23.1333292,3.84643392 L23.1333292,3.84643392 Z M24.6031047,16.8789651 C24.2825686,17.1995012 23.9073067,17.3558603 23.4929551,17.3558603 L1.58704489,17.3558603 C1.15705736,17.3558603 0.797431421,17.1995012 0.476895262,16.8789651 C0.156359102,16.5662469 0,16.198803 0,15.7688155 L0,1.64958853 C0,1.23523691 0.148541147,0.867793017 0.437805486,0.570710723 C0.734887781,0.281446384 1.10233167,0.109451372 1.54013716,0.0859975062 L1.56359102,0 L23.4538653,0 L23.4929551,0.0859975062 L23.868217,0.0859975062 L23.4929551,0.0859975062 C23.9307606,0.0859975062 24.2982045,0.242356608 24.6109227,0.547256858 C24.9236409,0.867793017 25.08,1.23523691 25.08,1.64958853 L25.08,15.7688155 C25.08,16.198803 24.9236409,16.5662469 24.6031047,16.8789651 L24.6031047,16.8789651 Z" id="path-1"></path>
    </defs>
    <g id="Symbols" stroke="none" stroke-width="1" fill="#F2F2F2" fill-rule="evenodd">
        <g id="Mail-Icon" transform="translate(-2.000000, -6.000000)">
            <g id="Icon-Color" transform="translate(2.000000, 6.000000)">
                <mask id="mask-2" fill="white">
                    <use xlink:href="#path-1"></use>
                </mask>
                <use id="Mask" fill="#B2B2B2" xlink:href="#path-1"></use>
            </g>
        </g>
    </g>
</svg>
