
<svg width="20px" height="20px" viewBox="0 0 20 20" version="1.1" xmlns="http://www.w3.org/2000/svg" xmlns:xlink="http://www.w3.org/1999/xlink">
    <!-- Generator: Sketch 51.2 (57519) - http://www.bohemiancoding.com/sketch -->
    <desc>Created with Sketch.</desc>
    <defs>
        <path d="M18.5714286,0 C18.9583336,0 19.293155,0.141369275 19.5758929,0.424107143 C19.8586307,0.706845011 20,1.04166644 20,1.42857143 L20,18.5714286 C20,18.9583336 19.8586307,19.293155 19.5758929,19.5758929 C19.293155,19.8586307 18.9583336,20 18.5714286,20 L1.42857143,20 C1.04166644,20 0.706845011,19.8586307 0.424107143,19.5758929 C0.141369275,19.293155 0,18.9583336 0,18.5714286 L0,1.42857143 C0,1.04166644 0.141369275,0.706845011 0.424107143,0.424107143 C0.706845011,0.141369275 1.04166644,0 1.42857143,0 L18.5714286,0 Z M3.08035714,17.1428571 L6.07142857,17.1428571 L6.07142857,7.58928571 L3.08035714,7.58928571 L3.08035714,17.1428571 Z M4.55357143,6.29464286 C5.02976213,6.29464286 5.43898787,6.12351213 5.78125,5.78125 C6.12351213,5.43898787 6.29464286,5.03720215 6.29464286,4.57589286 C6.29464286,4.11458356 6.12351213,3.71279785 5.78125,3.37053571 C5.43898787,3.02827358 5.02976213,2.85714286 4.55357143,2.85714286 C4.07738073,2.85714286 3.67559501,3.02827358 3.34821429,3.37053571 C3.02083356,3.71279785 2.85714286,4.11458356 2.85714286,4.57589286 C2.85714286,5.03720215 3.02083356,5.43898787 3.34821429,5.78125 C3.67559501,6.12351213 4.07738073,6.29464286 4.55357143,6.29464286 Z M17.1428571,17.1428571 L17.1428571,11.9196429 C17.1428571,10.4315478 16.9345236,9.34523787 16.5178571,8.66071429 C15.9523807,7.79761927 14.9851193,7.36607143 13.6160714,7.36607143 C12.9315478,7.36607143 12.3214286,7.52976213 11.7857143,7.85714286 C11.3392857,8.125 11.011905,8.46726213 10.8035714,8.88392857 L10.7589286,8.88392857 L10.7589286,7.58928571 L7.90178571,7.58928571 L7.90178571,17.1428571 L10.8482143,17.1428571 L10.8482143,12.4107143 C10.8482143,11.6666664 10.9523807,11.1011907 11.1607143,10.7142857 C11.4583336,10.2083336 11.949405,9.95535714 12.6339286,9.95535714 C13.3184522,9.95535714 13.7648807,10.238095 13.9732143,10.8035714 C14.1220236,11.1607143 14.1964286,11.7261907 14.1964286,12.5 L14.1964286,17.1428571 L17.1428571,17.1428571 Z" id="path-1"></path>
    </defs>
    <g id="Symbols" stroke="none" stroke-width="1" fill="#F2F2F2" fill-rule="evenodd">
        <g id="Linkeding-Icon" transform="translate(-5.000000, -5.000000)">
            <g id="Icon-Color" transform="translate(5.000000, 5.000000)">
                <mask id="mask-2" fill="white">
                    <use xlink:href="#path-1"></use>
                </mask>
                <use id="Mask" fill="#FFFFFF" xlink:href="#path-1"></use>
            </g>
        </g>
    </g>
</svg>
