<?xml version="1.0" encoding="UTF-8"?>
<svg width="69px" height="49px" viewBox="0 0 69 49" version="1.1" xmlns="http://www.w3.org/2000/svg" xmlns:xlink="http://www.w3.org/1999/xlink">
    <!-- Generator: Sketch 51.2 (57519) - http://www.bohemiancoding.com/sketch -->
    <title>Mask</title>
    <desc>Created with Sketch.</desc>
    <defs>
        <path d="M74.9839063,25.7307331 L68.676875,19.4078947 C67.383125,18.1109023 65.6257813,17.3867481 63.7929688,17.3867481 L58.025,17.3867481 L58.025,10.4586466 C58.025,8.54558271 56.4832813,7 54.575,7 L11.45,7 C9.54171875,7 8,8.54558271 8,10.4586466 L8,46.7744361 C8,51.5516917 11.8596875,55.4210526 16.625,55.4210526 C19.4604688,55.4210526 21.9509375,54.0267857 23.525,51.9191729 C25.0990625,54.037594 27.5895313,55.4210526 30.425,55.4210526 C35.1903125,55.4210526 39.05,51.5516917 39.05,46.7744361 C39.05,46.1799812 38.9853125,45.6071429 38.8775,45.0451128 L56.4725,45.0451128 C56.3539063,45.6071429 56.3,46.1799812 56.3,46.7744361 C56.3,51.5516917 60.1596875,55.4210526 64.925,55.4210526 C69.6903125,55.4210526 73.55,51.5516917 73.55,46.7744361 C73.55,46.1799812 73.4853125,45.6071429 73.3775,45.0451128 L75.275,45.0451128 C76.22375,45.0451128 77,44.2669173 77,43.3157895 L77,30.6160714 C77,28.7786654 76.2776563,27.0277256 74.9839063,25.7307331 Z M63.7929687,20.8345865 C64.709375,20.8345865 65.5826562,21.1912594 66.2295312,21.8505639 L72.1160937,27.7518797 L58.025,27.7518797 L58.025,20.8345865 L63.7929687,20.8345865 Z M16.625,51.962406 C13.7679687,51.962406 11.45,49.6386278 11.45,46.7744361 C11.45,43.9102444 13.7679687,41.5864662 16.625,41.5864662 C19.4820312,41.5864662 21.8,43.9102444 21.8,46.7744361 C21.8,49.6386278 19.4820312,51.962406 16.625,51.962406 Z M30.425,51.962406 C27.5679687,51.962406 25.25,49.6386278 25.25,46.7744361 C25.25,43.9102444 27.5679687,41.5864662 30.425,41.5864662 C33.2820312,41.5864662 35.6,43.9102444 35.6,46.7744361 C35.6,49.6386278 33.2820312,51.962406 30.425,51.962406 Z M54.575,41.5864662 L37.281875,41.5864662 C35.7078125,39.5004699 33.2389063,38.1278195 30.425,38.1278195 C27.6110938,38.1278195 25.1421875,39.5004699 23.568125,41.5864662 L23.4926563,41.5864662 C23.4926563,41.5864662 23.4926563,41.5972744 23.5034375,41.5972744 C21.9185938,39.5004699 19.4389063,38.1278195 16.625,38.1278195 C14.6735937,38.1278195 12.8946875,38.7979323 11.45,39.9003759 L11.45,10.4586466 L54.575,10.4586466 L54.575,41.5864662 Z M64.925,51.962406 C62.0679688,51.962406 59.75,49.6386278 59.75,46.7744361 C59.75,43.9102444 62.0679688,41.5864662 64.925,41.5864662 C67.7820313,41.5864662 70.1,43.9102444 70.1,46.7744361 C70.1,49.6386278 67.7820313,51.962406 64.925,51.962406 Z M73.55,41.5864662 L71.781875,41.5864662 C70.2078125,39.5004699 67.7389063,38.1278195 64.925,38.1278195 C62.1110937,38.1278195 59.6421875,39.5004699 58.068125,41.5864662 L58.025,41.5864662 L58.025,31.2105263 L73.55,31.2105263 L73.55,41.5864662 Z" id="path-1"></path>
    </defs>
    <g id="Symbols" stroke="none" stroke-width="1" fill="none" fill-rule="evenodd">
        <g id="Moving-Category" transform="translate(-8.000000, -7.000000)">
            <mask id="mask-2" fill="white">
                <use xlink:href="#path-1"></use>
            </mask>
            <use id="Mask" fill="#000000" fill-rule="nonzero" xlink:href="#path-1"></use>
        </g>
    </g>
</svg>
