<?xml version="1.0" encoding="UTF-8"?>
<svg width="117px" height="75px" viewBox="0 0 117 75" version="1.1" xmlns="http://www.w3.org/2000/svg" xmlns:xlink="http://www.w3.org/1999/xlink">
    <!-- Generator: Sketch 51.2 (57519) - http://www.bohemiancoding.com/sketch -->
    <title>Icon</title>
    <desc>Created with Sketch.</desc>
    <defs></defs>
    <g id="Sign_in" stroke="none" stroke-width="1" fill="white" fill-rule="evenodd">
        <g id="Edit-Profile" transform="translate(-129.000000, -139.000000)" fill="#DDDDDD">
            <path d="M137.357143,147.333333 C132.744,147.333333 129,151.066667 129,155.666667 L129,205.666667 C129,210.266667 132.744,214 137.357143,214 L237.642857,214 C242.256,214 246,210.266667 246,205.666667 L246,155.666667 C246,151.066667 242.256,147.333333 237.642857,147.333333 L213.407143,147.333333 C213.407143,142.733333 209.663143,139 205.05,139 L167.442857,139 C162.829714,139 159.085714,142.733333 159.085714,147.333333 L137.357143,147.333333 L137.357143,147.333333 Z M162,180 C162,166.742069 172.742069,156 186,156 C199.257931,156 210,166.742069 210,180 C210,193.257931 199.257931,204 186,204 C172.742069,204 162,193.257931 162,180 L162,180 Z" id="Icon"></path>
        </g>
    </g>
</svg>
