
<svg width="16px" height="21px" viewBox="0 0 16 21" version="1.1" xmlns="http://www.w3.org/2000/svg" xmlns:xlink="http://www.w3.org/1999/xlink">
    <!-- Generator: Sketch 51.2 (57519) - http://www.bohemiancoding.com/sketch -->
    <desc>Created with Sketch.</desc>
    <defs>
        <path d="M15.5698234,9.14927769 C15.2873194,8.86677368 14.9470305,8.72552167 14.5553772,8.72552167 L14.5553772,5.08507223 C14.5553772,4.04494382 14.3948636,3.1717496 14.0738363,2.47833066 C13.752809,1.79775281 13.2841091,1.27126806 12.6484751,0.924558587 C12.0064205,0.571428571 11.3386838,0.333868379 10.6131621,0.199036918 C9.894061,0.0706260032 9.02728732,0 8.00642055,0 C6.98555377,0 6.1187801,0.0706260032 5.39967897,0.199036918 C4.6741573,0.333868379 4,0.571428571 3.37078652,0.924558587 C2.74157303,1.27126806 2.26645265,1.79775281 1.94542536,2.47833066 C1.62439807,3.1717496 1.46388443,4.04494382 1.46388443,5.08507223 L1.46388443,8.72552167 C1.0529695,8.72552167 0.699839486,8.86677368 0.423756019,9.14927769 C0.141252006,9.4317817 0,9.77207063 0,10.1701445 L0,18.9020867 C0,19.3001605 0.141252006,19.6532905 0.423756019,19.9422151 C0.699839486,20.211878 1.0529695,20.3659711 1.46388443,20.3659711 L14.5553772,20.3659711 C14.9470305,20.3659711 15.2873194,20.211878 15.5698234,19.9422151 C15.8523274,19.6532905 16,19.3001605 16,18.9020867 L16,10.1701445 C16,9.77207063 15.8523274,9.4317817 15.5698234,9.14927769 L15.5698234,9.14927769 Z M11.64687,6.91492777 C11.6340289,7.71749599 11.6340289,8.32744783 11.6340289,8.72552167 L4.36597111,8.72552167 L4.36597111,5.08507223 C4.36597111,4.6035313 4.43659711,4.21187801 4.58426966,3.91011236 C4.72552167,3.61476726 4.95666132,3.38362761 5.25842697,3.2423756 C5.56019262,3.1011236 5.85553772,3.01123596 6.15730337,2.97271268 C6.45906902,2.92776886 6.85072231,2.90208668 7.33226324,2.90208668 L8.70626003,2.90208668 C9.68218299,2.90208668 10.4141252,3.04333868 10.9149278,3.31942215 C11.4093098,3.60192616 11.6597111,4.18619583 11.6597111,5.08507223 C11.6597111,5.49598716 11.64687,6.11235955 11.64687,6.91492777 L11.64687,6.91492777 Z" id="path-1"></path>
    </defs>
    <g id="Symbols" stroke="none" stroke-width="1" fill="none" fill-rule="evenodd">
        <g id="Lock-Icon" transform="translate(-7.000000, -5.000000)">
            <g id="Icon-Color" transform="translate(7.000000, 5.000000)">
                <mask id="mask-2" fill="white">
                    <use xlink:href="#path-1"></use>
                </mask>
                <use id="Mask" fill="#B2B2B2" xlink:href="#path-1"></use>
            </g>
        </g>
    </g>
</svg>
