<?xml version="1.0" encoding="UTF-8"?>
<svg width="30px" height="30px" viewBox="0 0 30 30" version="1.1" xmlns="http://www.w3.org/2000/svg" xmlns:xlink="http://www.w3.org/1999/xlink">
    <!-- Generator: Sketch 51.2 (57519) - http://www.bohemiancoding.com/sketch -->
    <title>Search Icon</title>
    <desc>Created with Sketch.</desc>
    <defs>
        <path d="M24.8623114,23.3155119 L20.1203555,18.573556 C20.0305161,18.4837166 19.9133343,18.4368439 19.7883404,18.4368439 L19.2727406,18.4368439 C20.5031493,17.0111323 21.2492066,15.1557541 21.2492066,13.1246033 C21.2492066,8.63654118 17.6126654,5 13.1246033,5 C8.63654118,5 5,8.63654118 5,13.1246033 C5,17.6126654 8.63654118,21.2492066 13.1246033,21.2492066 C15.1557541,21.2492066 17.0111323,20.5031493 18.4368439,19.2727406 L18.4368439,19.7883404 C18.4368439,19.9133343 18.4876227,20.0305161 18.573556,20.1203555 L23.3155119,24.8623114 C23.4990967,25.0458962 23.7959572,25.0458962 23.979542,24.8623114 L24.8623114,23.979542 C25.0458962,23.7959572 25.0458962,23.4990967 24.8623114,23.3155119 Z M13.1246033,19.3742981 C9.67164689,19.3742981 6.87490845,16.5775597 6.87490845,13.1246033 C6.87490845,9.67164689 9.67164689,6.87490845 13.1246033,6.87490845 C16.5775597,6.87490845 19.3742981,9.67164689 19.3742981,13.1246033 C19.3742981,16.5775597 16.5775597,19.3742981 13.1246033,19.3742981 Z" id="path-1"></path>
    </defs>
    <g id="Search-Icon" stroke="none" stroke-width="1" fill="none" fill-rule="evenodd">
        <mask id="mask-2" fill="white">
            <use xlink:href="#path-1"></use>
        </mask>
        <use id="Mask" fill="#000000" fill-rule="nonzero" xlink:href="#path-1"></use>
        <g id="Color-Black" mask="url(#mask-2)" fill="#3F3F4A" fill-rule="nonzero">
        </g>
    </g>
</svg>
