
<svg width="20px" height="20px" viewBox="0 0 20 20" version="1.1" xmlns="http://www.w3.org/2000/svg" xmlns:xlink="http://www.w3.org/1999/xlink">
    <!-- Generator: Sketch 51.2 (57519) - http://www.bohemiancoding.com/sketch -->
    <desc>Created with Sketch.</desc>
    <defs>
        <path d="M19.2433796,16.519546 C19.0605296,16.3745271 18.7894073,16.2042875 18.4237074,16.0214376 C18.0580076,15.8322825 17.8121059,15.7124842 17.6733922,15.6557377 L16.9356873,15.3467844 C15.9205549,14.9369483 15.2900378,14.6784363 15.0567465,14.5586381 C13.9722573,14.0668348 13.2030265,13.5435057 12.7364439,13.0138714 C12.5031526,12.7490542 12.3959647,12.4905422 12.3959647,12.2446406 C12.3959647,11.9609079 12.4716267,11.4754098 12.629256,10.7881463 C12.6796974,10.5674653 12.7490542,10.3656999 12.8373266,10.1450189 C12.9129887,9.93064313 13.0327869,9.68474149 13.1715006,9.40100883 C13.3102144,9.110971 13.4110971,8.90290038 13.4678436,8.7704918 C13.6317781,8.35435057 13.852459,7.4779319 14.110971,6.13493064 C14.2181589,5.44766709 14.2749054,5.07566204 14.2749054,4.99369483 C14.2749054,3.58764187 13.9029004,2.40226986 13.1651955,1.43757881 C12.4148802,0.479192938 11.3619168,0 9.98738966,0 C8.61286255,0 7.55359395,0.479192938 6.81588903,1.43757881 C6.06557377,2.40226986 5.70617907,3.58764187 5.70617907,4.99369483 C5.70617907,5.11349306 5.71248424,5.23959647 5.73139975,5.37200504 C5.75031526,5.49810845 5.77553594,5.63682219 5.81336696,5.78184111 C5.85119798,5.9331652 5.87011349,6.04665826 5.889029,6.13493064 C5.92055485,6.23581337 5.97730139,6.50063052 6.0592686,6.93568726 C6.13493064,7.37074401 6.20428752,7.72383354 6.27364439,7.98865069 C6.34300126,8.25346784 6.44388398,8.51197982 6.56368222,8.7704918 C6.62042875,8.90290038 6.72131148,9.110971 6.86002522,9.40100883 C6.9924338,9.68474149 7.11223203,9.93064313 7.20050441,10.1450189 C7.28247163,10.3656999 7.3518285,10.5674653 7.39596469,10.7881463 C7.55359395,11.3619168 7.63556116,11.8537201 7.63556116,12.2446406 C7.63556116,12.4905422 7.51576293,12.7490542 7.2887768,13.0138714 C6.81588903,13.5435057 6.04035309,14.0668348 4.97477932,14.5586381 C4.85498108,14.6216898 4.22446406,14.8738966 3.08322825,15.3467844 C3.06431274,15.3467844 2.9445145,15.4098361 2.71752837,15.5044136 C2.49054224,15.6052963 2.34552333,15.6746532 2.27616646,15.6935687 C2.19419924,15.7250946 2.04918033,15.7944515 1.83480454,15.889029 C1.60781841,15.9899117 1.45018916,16.0781841 1.36191677,16.1349306 C1.26103405,16.1979823 1.13493064,16.2862547 0.958385876,16.3934426 C0.775535939,16.5006305 0.643127364,16.6078184 0.561160151,16.7087011 C0.472887768,16.8095839 0.372005044,16.9230769 0.277427491,17.0554855 C0.176544767,17.1815889 0.100882724,17.3076923 0.0567465322,17.4464061 C0.0189155107,17.5851198 0,17.7238335 0,17.8625473 L0,20 L20,20 L20,17.8625473 C20,17.6040353 19.9117276,17.3581337 19.7540984,17.112232 C19.5838588,16.8726356 19.4199243,16.6771753 19.2433796,16.519546 Z" id="path-1"></path>
    </defs>
    <g id="Symbols" stroke="none" stroke-width="1" fill="none" fill-rule="evenodd">
        <g id="User-Icon" transform="translate(-5.000000, -5.000000)">
            <g id="Rectangle" transform="translate(5.000000, 5.000000)">
                <g id="Icon-Color">
                    <mask id="mask-2" fill="white">
                        <use xlink:href="#path-1"></use>
                    </mask>
                    <use id="Mask" fill="#B2B2B2" xlink:href="#path-1"></use>
                </g>
            </g>
        </g>
    </g>
</svg>
